<mxfile host="Electron" modified="2023-04-25T15:39:45.620Z" agent="Mozilla/5.0 (Windows NT 10.0; Win64; x64) AppleWebKit/537.36 (KHTML, like Gecko) draw.io/21.1.2 Chrome/106.0.5249.199 Electron/21.4.3 Safari/537.36" etag="BYX9NboRBWmaABhThZJZ" version="21.1.2" type="device" pages="8">
  <diagram id="cqayvLQNG3Y3-4uuws4L" name="Service">
    <mxGraphModel dx="1276" dy="654" grid="1" gridSize="10" guides="1" tooltips="1" connect="1" arrows="1" fold="1" page="1" pageScale="1" pageWidth="850" pageHeight="1100" math="0" shadow="0">
      <root>
        <mxCell id="0" />
        <mxCell id="1" parent="0" />
        <mxCell id="J7DKst7FOaqrxu8PXGQH-5" value="" style="edgeStyle=orthogonalEdgeStyle;rounded=0;orthogonalLoop=1;jettySize=auto;html=1;" parent="1" source="Vv3ci1FITu15jb4FHCei-15" target="J7DKst7FOaqrxu8PXGQH-3" edge="1">
          <mxGeometry relative="1" as="geometry" />
        </mxCell>
        <mxCell id="Vv3ci1FITu15jb4FHCei-15" value="" style="ellipse;fillColor=#000000;strokeColor=none;" parent="1" vertex="1">
          <mxGeometry x="455" y="20" width="30" height="30" as="geometry" />
        </mxCell>
        <mxCell id="Vv3ci1FITu15jb4FHCei-25" style="edgeStyle=orthogonalEdgeStyle;rounded=0;orthogonalLoop=1;jettySize=auto;html=1;" parent="1" source="Vv3ci1FITu15jb4FHCei-16" target="Vv3ci1FITu15jb4FHCei-17" edge="1">
          <mxGeometry relative="1" as="geometry" />
        </mxCell>
        <mxCell id="Vv3ci1FITu15jb4FHCei-36" value="Booking service" style="edgeLabel;html=1;align=center;verticalAlign=middle;resizable=0;points=[];" parent="Vv3ci1FITu15jb4FHCei-25" vertex="1" connectable="0">
          <mxGeometry x="0.2917" y="-1" relative="1" as="geometry">
            <mxPoint x="61" y="-51" as="offset" />
          </mxGeometry>
        </mxCell>
        <mxCell id="Vv3ci1FITu15jb4FHCei-26" style="edgeStyle=orthogonalEdgeStyle;rounded=0;orthogonalLoop=1;jettySize=auto;html=1;" parent="1" source="Vv3ci1FITu15jb4FHCei-16" target="Vv3ci1FITu15jb4FHCei-18" edge="1">
          <mxGeometry relative="1" as="geometry" />
        </mxCell>
        <mxCell id="Vv3ci1FITu15jb4FHCei-37" value="Hotel service" style="edgeLabel;html=1;align=center;verticalAlign=middle;resizable=0;points=[];" parent="Vv3ci1FITu15jb4FHCei-26" vertex="1" connectable="0">
          <mxGeometry x="-0.2735" y="2" relative="1" as="geometry">
            <mxPoint x="-14" y="-8" as="offset" />
          </mxGeometry>
        </mxCell>
        <mxCell id="Vv3ci1FITu15jb4FHCei-16" value="Order service" style="html=1;align=center;verticalAlign=top;rounded=1;absoluteArcSize=1;arcSize=10;dashed=0;" parent="1" vertex="1">
          <mxGeometry x="400" y="200" width="140" height="40" as="geometry" />
        </mxCell>
        <mxCell id="Vv3ci1FITu15jb4FHCei-39" style="edgeStyle=orthogonalEdgeStyle;rounded=0;orthogonalLoop=1;jettySize=auto;html=1;exitX=0;exitY=0.25;exitDx=0;exitDy=0;entryX=0.5;entryY=0;entryDx=0;entryDy=0;" parent="1" source="Vv3ci1FITu15jb4FHCei-17" target="Vv3ci1FITu15jb4FHCei-19" edge="1">
          <mxGeometry relative="1" as="geometry" />
        </mxCell>
        <mxCell id="Vv3ci1FITu15jb4FHCei-41" value="Room unavailable" style="edgeLabel;html=1;align=center;verticalAlign=middle;resizable=0;points=[];" parent="Vv3ci1FITu15jb4FHCei-39" vertex="1" connectable="0">
          <mxGeometry x="0.159" y="-2" relative="1" as="geometry">
            <mxPoint x="-43" y="12" as="offset" />
          </mxGeometry>
        </mxCell>
        <mxCell id="Vv3ci1FITu15jb4FHCei-40" style="edgeStyle=orthogonalEdgeStyle;rounded=0;orthogonalLoop=1;jettySize=auto;html=1;exitX=1;exitY=0.5;exitDx=0;exitDy=0;entryX=0.5;entryY=0;entryDx=0;entryDy=0;" parent="1" source="Vv3ci1FITu15jb4FHCei-17" target="Vv3ci1FITu15jb4FHCei-21" edge="1">
          <mxGeometry relative="1" as="geometry" />
        </mxCell>
        <mxCell id="Vv3ci1FITu15jb4FHCei-17" value="Check room availability" style="html=1;align=center;verticalAlign=top;rounded=1;absoluteArcSize=1;arcSize=10;dashed=0;" parent="1" vertex="1">
          <mxGeometry x="200" y="340" width="140" height="40" as="geometry" />
        </mxCell>
        <mxCell id="Vv3ci1FITu15jb4FHCei-38" style="edgeStyle=orthogonalEdgeStyle;rounded=0;orthogonalLoop=1;jettySize=auto;html=1;exitX=0;exitY=0.5;exitDx=0;exitDy=0;entryX=0.5;entryY=1;entryDx=0;entryDy=0;" parent="1" source="Vv3ci1FITu15jb4FHCei-18" target="Vv3ci1FITu15jb4FHCei-16" edge="1">
          <mxGeometry relative="1" as="geometry" />
        </mxCell>
        <mxCell id="Vv3ci1FITu15jb4FHCei-18" value="Online Bill" style="html=1;align=center;verticalAlign=top;rounded=1;absoluteArcSize=1;arcSize=10;dashed=0;" parent="1" vertex="1">
          <mxGeometry x="580" y="340" width="140" height="40" as="geometry" />
        </mxCell>
        <mxCell id="Vv3ci1FITu15jb4FHCei-33" style="edgeStyle=orthogonalEdgeStyle;rounded=0;orthogonalLoop=1;jettySize=auto;html=1;exitX=0.5;exitY=1;exitDx=0;exitDy=0;entryX=0;entryY=0.5;entryDx=0;entryDy=0;" parent="1" source="Vv3ci1FITu15jb4FHCei-19" target="Vv3ci1FITu15jb4FHCei-20" edge="1">
          <mxGeometry relative="1" as="geometry" />
        </mxCell>
        <mxCell id="Vv3ci1FITu15jb4FHCei-19" value="Deny service" style="html=1;align=center;verticalAlign=top;rounded=1;absoluteArcSize=1;arcSize=10;dashed=0;" parent="1" vertex="1">
          <mxGeometry x="75" y="490" width="140" height="40" as="geometry" />
        </mxCell>
        <mxCell id="Vv3ci1FITu15jb4FHCei-20" value="" style="ellipse;html=1;shape=endState;fillColor=#000000;strokeColor=#000000;" parent="1" vertex="1">
          <mxGeometry x="390" y="600" width="30" height="30" as="geometry" />
        </mxCell>
        <mxCell id="Vv3ci1FITu15jb4FHCei-44" style="edgeStyle=orthogonalEdgeStyle;rounded=0;orthogonalLoop=1;jettySize=auto;html=1;exitX=0.75;exitY=0;exitDx=0;exitDy=0;entryX=0.25;entryY=1;entryDx=0;entryDy=0;" parent="1" source="Vv3ci1FITu15jb4FHCei-21" target="Vv3ci1FITu15jb4FHCei-16" edge="1">
          <mxGeometry relative="1" as="geometry" />
        </mxCell>
        <mxCell id="Vv3ci1FITu15jb4FHCei-21" value="Room order record" style="html=1;align=center;verticalAlign=top;rounded=1;absoluteArcSize=1;arcSize=10;dashed=0;" parent="1" vertex="1">
          <mxGeometry x="330" y="480" width="140" height="40" as="geometry" />
        </mxCell>
        <mxCell id="Vv3ci1FITu15jb4FHCei-31" style="edgeStyle=orthogonalEdgeStyle;rounded=0;orthogonalLoop=1;jettySize=auto;html=1;exitX=0.5;exitY=1;exitDx=0;exitDy=0;" parent="1" source="Vv3ci1FITu15jb4FHCei-27" target="Vv3ci1FITu15jb4FHCei-28" edge="1">
          <mxGeometry relative="1" as="geometry" />
        </mxCell>
        <mxCell id="Vv3ci1FITu15jb4FHCei-27" value="Checkout" style="html=1;align=center;verticalAlign=top;rounded=1;absoluteArcSize=1;arcSize=10;dashed=0;" parent="1" vertex="1">
          <mxGeometry x="580" y="430" width="140" height="40" as="geometry" />
        </mxCell>
        <mxCell id="Vv3ci1FITu15jb4FHCei-32" style="edgeStyle=orthogonalEdgeStyle;rounded=0;orthogonalLoop=1;jettySize=auto;html=1;exitX=0.5;exitY=1;exitDx=0;exitDy=0;entryX=1;entryY=0.5;entryDx=0;entryDy=0;" parent="1" source="Vv3ci1FITu15jb4FHCei-28" target="Vv3ci1FITu15jb4FHCei-20" edge="1">
          <mxGeometry relative="1" as="geometry" />
        </mxCell>
        <mxCell id="Vv3ci1FITu15jb4FHCei-28" value="Choose payment method" style="html=1;align=center;verticalAlign=top;rounded=1;absoluteArcSize=1;arcSize=10;dashed=0;" parent="1" vertex="1">
          <mxGeometry x="580" y="500" width="140" height="40" as="geometry" />
        </mxCell>
        <mxCell id="J7DKst7FOaqrxu8PXGQH-6" value="" style="edgeStyle=orthogonalEdgeStyle;rounded=0;orthogonalLoop=1;jettySize=auto;html=1;" parent="1" source="J7DKst7FOaqrxu8PXGQH-3" target="Vv3ci1FITu15jb4FHCei-16" edge="1">
          <mxGeometry relative="1" as="geometry" />
        </mxCell>
        <mxCell id="J7DKst7FOaqrxu8PXGQH-7" style="edgeStyle=orthogonalEdgeStyle;rounded=0;orthogonalLoop=1;jettySize=auto;html=1;exitX=1;exitY=0.5;exitDx=0;exitDy=0;entryX=1;entryY=0.5;entryDx=0;entryDy=0;" parent="1" source="J7DKst7FOaqrxu8PXGQH-3" target="Vv3ci1FITu15jb4FHCei-27" edge="1">
          <mxGeometry relative="1" as="geometry" />
        </mxCell>
        <mxCell id="J7DKst7FOaqrxu8PXGQH-3" value="IDLE" style="html=1;align=center;verticalAlign=top;rounded=1;absoluteArcSize=1;arcSize=10;dashed=0;" parent="1" vertex="1">
          <mxGeometry x="400" y="100" width="140" height="40" as="geometry" />
        </mxCell>
      </root>
    </mxGraphModel>
  </diagram>
  <diagram id="qYMRfEmkPktkoYfEE4aP" name="Login-Logout">
    <mxGraphModel dx="1823" dy="934" grid="1" gridSize="10" guides="1" tooltips="1" connect="1" arrows="1" fold="1" page="1" pageScale="1" pageWidth="1100" pageHeight="1700" math="0" shadow="0">
      <root>
        <mxCell id="0" />
        <mxCell id="1" parent="0" />
        <mxCell id="UWayO1umxpSxojt2qdXo-1" value="" style="ellipse;fillColor=#000000;strokeColor=none;" parent="1" vertex="1">
          <mxGeometry x="455" y="20" width="30" height="30" as="geometry" />
        </mxCell>
        <mxCell id="VBWwxBtcgoOA3XDyaHxQ-1" value="IDLE" style="rounded=1;whiteSpace=wrap;html=1;" parent="1" vertex="1">
          <mxGeometry x="410" y="90" width="120" height="60" as="geometry" />
        </mxCell>
        <mxCell id="VBWwxBtcgoOA3XDyaHxQ-2" value="" style="endArrow=classic;html=1;rounded=0;exitX=0.5;exitY=1;exitDx=0;exitDy=0;" parent="1" source="UWayO1umxpSxojt2qdXo-1" target="VBWwxBtcgoOA3XDyaHxQ-1" edge="1">
          <mxGeometry width="50" height="50" relative="1" as="geometry">
            <mxPoint x="450" y="50" as="sourcePoint" />
            <mxPoint x="510" as="targetPoint" />
          </mxGeometry>
        </mxCell>
        <mxCell id="VBWwxBtcgoOA3XDyaHxQ-3" value="" style="endArrow=classic;html=1;rounded=0;" parent="1" edge="1">
          <mxGeometry width="50" height="50" relative="1" as="geometry">
            <mxPoint x="530" y="120" as="sourcePoint" />
            <mxPoint x="640" y="200" as="targetPoint" />
            <Array as="points">
              <mxPoint x="640" y="120" />
            </Array>
          </mxGeometry>
        </mxCell>
        <mxCell id="VBWwxBtcgoOA3XDyaHxQ-4" value="Customer" style="text;html=1;align=center;verticalAlign=middle;resizable=0;points=[];autosize=1;strokeColor=none;fillColor=none;" parent="1" vertex="1">
          <mxGeometry x="550" y="85" width="80" height="30" as="geometry" />
        </mxCell>
        <mxCell id="VBWwxBtcgoOA3XDyaHxQ-5" value="Login" style="rounded=1;whiteSpace=wrap;html=1;" parent="1" vertex="1">
          <mxGeometry x="590" y="200" width="120" height="60" as="geometry" />
        </mxCell>
        <mxCell id="VBWwxBtcgoOA3XDyaHxQ-6" value="" style="endArrow=classic;html=1;rounded=0;" parent="1" edge="1">
          <mxGeometry width="50" height="50" relative="1" as="geometry">
            <mxPoint x="410" y="115" as="sourcePoint" />
            <mxPoint x="270" y="200" as="targetPoint" />
            <Array as="points">
              <mxPoint x="270" y="115" />
            </Array>
          </mxGeometry>
        </mxCell>
        <mxCell id="VBWwxBtcgoOA3XDyaHxQ-8" value="Guest" style="text;html=1;align=center;verticalAlign=middle;resizable=0;points=[];autosize=1;strokeColor=none;fillColor=none;" parent="1" vertex="1">
          <mxGeometry x="310" y="85" width="60" height="30" as="geometry" />
        </mxCell>
        <mxCell id="VBWwxBtcgoOA3XDyaHxQ-9" value="Register" style="rhombus;whiteSpace=wrap;html=1;" parent="1" vertex="1">
          <mxGeometry x="230" y="200" width="80" height="80" as="geometry" />
        </mxCell>
        <mxCell id="VBWwxBtcgoOA3XDyaHxQ-11" value="" style="endArrow=classic;html=1;rounded=0;" parent="1" edge="1">
          <mxGeometry width="50" height="50" relative="1" as="geometry">
            <mxPoint x="230" y="240" as="sourcePoint" />
            <mxPoint x="80" y="240" as="targetPoint" />
          </mxGeometry>
        </mxCell>
        <mxCell id="Q-t2P4SlNMyf1b_e4ZQT-1" value="" style="ellipse;html=1;shape=endState;fillColor=#000000;strokeColor=#000000;" parent="1" vertex="1">
          <mxGeometry x="40" y="225" width="30" height="30" as="geometry" />
        </mxCell>
        <mxCell id="Q-t2P4SlNMyf1b_e4ZQT-2" value="Only View Website" style="text;html=1;align=center;verticalAlign=middle;resizable=0;points=[];autosize=1;strokeColor=none;fillColor=none;" parent="1" vertex="1">
          <mxGeometry x="100" y="210" width="120" height="30" as="geometry" />
        </mxCell>
        <mxCell id="Q-t2P4SlNMyf1b_e4ZQT-3" value="No" style="text;html=1;align=center;verticalAlign=middle;resizable=0;points=[];autosize=1;strokeColor=none;fillColor=none;" parent="1" vertex="1">
          <mxGeometry x="200" y="240" width="40" height="30" as="geometry" />
        </mxCell>
        <mxCell id="Q-t2P4SlNMyf1b_e4ZQT-4" value="" style="endArrow=classic;html=1;rounded=0;" parent="1" edge="1">
          <mxGeometry width="50" height="50" relative="1" as="geometry">
            <mxPoint x="269.5" y="280" as="sourcePoint" />
            <mxPoint x="270" y="340" as="targetPoint" />
          </mxGeometry>
        </mxCell>
        <mxCell id="Q-t2P4SlNMyf1b_e4ZQT-5" value="Yes" style="text;html=1;align=center;verticalAlign=middle;resizable=0;points=[];autosize=1;strokeColor=none;fillColor=none;" parent="1" vertex="1">
          <mxGeometry x="270" y="280" width="40" height="30" as="geometry" />
        </mxCell>
        <mxCell id="48XteLVSWuOSw09eDU2G-1" value="" style="rounded=1;whiteSpace=wrap;html=1;" parent="1" vertex="1">
          <mxGeometry x="40" y="340" width="320" height="450" as="geometry" />
        </mxCell>
        <mxCell id="48XteLVSWuOSw09eDU2G-3" value="Register Page" style="rounded=0;whiteSpace=wrap;html=1;" parent="1" vertex="1">
          <mxGeometry x="200" y="340" width="120" height="30" as="geometry" />
        </mxCell>
        <mxCell id="48XteLVSWuOSw09eDU2G-4" value="" style="ellipse;fillColor=#000000;strokeColor=none;" parent="1" vertex="1">
          <mxGeometry x="185" y="380" width="30" height="30" as="geometry" />
        </mxCell>
        <mxCell id="48XteLVSWuOSw09eDU2G-8" value="" style="endArrow=classic;html=1;rounded=0;" parent="1" edge="1">
          <mxGeometry width="50" height="50" relative="1" as="geometry">
            <mxPoint x="200" y="410" as="sourcePoint" />
            <mxPoint x="200.5" y="440" as="targetPoint" />
          </mxGeometry>
        </mxCell>
        <mxCell id="48XteLVSWuOSw09eDU2G-9" value="Register" style="rounded=1;whiteSpace=wrap;html=1;" parent="1" vertex="1">
          <mxGeometry x="140" y="440" width="120" height="60" as="geometry" />
        </mxCell>
        <mxCell id="48XteLVSWuOSw09eDU2G-11" value="" style="endArrow=classic;html=1;rounded=0;" parent="1" edge="1">
          <mxGeometry width="50" height="50" relative="1" as="geometry">
            <mxPoint x="199" y="500" as="sourcePoint" />
            <mxPoint x="200" y="540" as="targetPoint" />
          </mxGeometry>
        </mxCell>
        <mxCell id="48XteLVSWuOSw09eDU2G-12" value="Enter Information" style="rounded=1;whiteSpace=wrap;html=1;" parent="1" vertex="1">
          <mxGeometry x="140" y="540" width="120" height="60" as="geometry" />
        </mxCell>
        <mxCell id="48XteLVSWuOSw09eDU2G-13" value="Enter Information" style="rounded=1;whiteSpace=wrap;html=1;" parent="1" vertex="1">
          <mxGeometry x="140" y="680" width="120" height="60" as="geometry" />
        </mxCell>
        <mxCell id="48XteLVSWuOSw09eDU2G-16" value="" style="endArrow=classic;html=1;rounded=0;exitX=0.5;exitY=1;exitDx=0;exitDy=0;" parent="1" source="48XteLVSWuOSw09eDU2G-12" edge="1">
          <mxGeometry width="50" height="50" relative="1" as="geometry">
            <mxPoint x="199.5" y="620" as="sourcePoint" />
            <mxPoint x="200" y="680" as="targetPoint" />
          </mxGeometry>
        </mxCell>
        <mxCell id="48XteLVSWuOSw09eDU2G-17" value="" style="endArrow=classic;html=1;rounded=0;exitX=1;exitY=0.5;exitDx=0;exitDy=0;" parent="1" source="48XteLVSWuOSw09eDU2G-13" edge="1">
          <mxGeometry width="50" height="50" relative="1" as="geometry">
            <mxPoint x="270" y="660" as="sourcePoint" />
            <mxPoint x="260" y="570" as="targetPoint" />
            <Array as="points">
              <mxPoint x="350" y="710" />
              <mxPoint x="350" y="570" />
            </Array>
          </mxGeometry>
        </mxCell>
        <mxCell id="48XteLVSWuOSw09eDU2G-18" value="Invalid Info" style="text;html=1;align=center;verticalAlign=middle;resizable=0;points=[];autosize=1;strokeColor=none;fillColor=none;" parent="1" vertex="1">
          <mxGeometry x="270" y="610" width="80" height="30" as="geometry" />
        </mxCell>
        <mxCell id="48XteLVSWuOSw09eDU2G-20" value="" style="endArrow=classic;html=1;rounded=0;" parent="1" target="48XteLVSWuOSw09eDU2G-13" edge="1">
          <mxGeometry width="50" height="50" relative="1" as="geometry">
            <mxPoint x="140" y="570" as="sourcePoint" />
            <mxPoint x="150" y="650" as="targetPoint" />
            <Array as="points">
              <mxPoint x="70" y="570" />
              <mxPoint x="70" y="710" />
            </Array>
          </mxGeometry>
        </mxCell>
        <mxCell id="48XteLVSWuOSw09eDU2G-21" value="Provide Info" style="text;html=1;align=center;verticalAlign=middle;resizable=0;points=[];autosize=1;strokeColor=none;fillColor=none;" parent="1" vertex="1">
          <mxGeometry x="65" y="610" width="90" height="30" as="geometry" />
        </mxCell>
        <mxCell id="48XteLVSWuOSw09eDU2G-23" value="" style="endArrow=classic;html=1;rounded=0;" parent="1" edge="1">
          <mxGeometry width="50" height="50" relative="1" as="geometry">
            <mxPoint x="199.5" y="740" as="sourcePoint" />
            <mxPoint x="200" y="850" as="targetPoint" />
          </mxGeometry>
        </mxCell>
        <mxCell id="48XteLVSWuOSw09eDU2G-24" value="Registed" style="rounded=1;whiteSpace=wrap;html=1;" parent="1" vertex="1">
          <mxGeometry x="140" y="850" width="120" height="60" as="geometry" />
        </mxCell>
        <mxCell id="48XteLVSWuOSw09eDU2G-25" value="Enter Information" style="rounded=1;whiteSpace=wrap;html=1;" parent="1" vertex="1">
          <mxGeometry x="580" y="310" width="120" height="60" as="geometry" />
        </mxCell>
        <mxCell id="48XteLVSWuOSw09eDU2G-26" value="" style="endArrow=classic;html=1;rounded=0;" parent="1" target="48XteLVSWuOSw09eDU2G-25" edge="1">
          <mxGeometry width="50" height="50" relative="1" as="geometry">
            <mxPoint x="640" y="260" as="sourcePoint" />
            <mxPoint x="690" y="210" as="targetPoint" />
          </mxGeometry>
        </mxCell>
        <mxCell id="48XteLVSWuOSw09eDU2G-27" value="Valid?" style="rhombus;whiteSpace=wrap;html=1;" parent="1" vertex="1">
          <mxGeometry x="600" y="410" width="80" height="80" as="geometry" />
        </mxCell>
        <mxCell id="48XteLVSWuOSw09eDU2G-28" value="" style="endArrow=classic;html=1;rounded=0;" parent="1" target="48XteLVSWuOSw09eDU2G-27" edge="1">
          <mxGeometry width="50" height="50" relative="1" as="geometry">
            <mxPoint x="640" y="370" as="sourcePoint" />
            <mxPoint x="690" y="320" as="targetPoint" />
          </mxGeometry>
        </mxCell>
        <mxCell id="48XteLVSWuOSw09eDU2G-29" value="" style="endArrow=classic;html=1;rounded=0;entryX=0;entryY=0.5;entryDx=0;entryDy=0;exitX=0;exitY=0.5;exitDx=0;exitDy=0;" parent="1" source="48XteLVSWuOSw09eDU2G-27" target="48XteLVSWuOSw09eDU2G-25" edge="1">
          <mxGeometry width="50" height="50" relative="1" as="geometry">
            <mxPoint x="600" y="440" as="sourcePoint" />
            <mxPoint x="570" y="340" as="targetPoint" />
            <Array as="points">
              <mxPoint x="520" y="450" />
              <mxPoint x="520" y="340" />
            </Array>
          </mxGeometry>
        </mxCell>
        <mxCell id="48XteLVSWuOSw09eDU2G-31" value="Invalid Info" style="text;html=1;align=center;verticalAlign=middle;resizable=0;points=[];autosize=1;strokeColor=none;fillColor=none;" parent="1" vertex="1">
          <mxGeometry x="510" y="380" width="80" height="30" as="geometry" />
        </mxCell>
        <mxCell id="48XteLVSWuOSw09eDU2G-32" value="" style="endArrow=classic;html=1;rounded=0;exitX=0.5;exitY=1;exitDx=0;exitDy=0;" parent="1" source="48XteLVSWuOSw09eDU2G-27" edge="1">
          <mxGeometry width="50" height="50" relative="1" as="geometry">
            <mxPoint x="640" y="495" as="sourcePoint" />
            <mxPoint x="640" y="540" as="targetPoint" />
          </mxGeometry>
        </mxCell>
        <mxCell id="48XteLVSWuOSw09eDU2G-33" value="Access Website" style="rounded=1;whiteSpace=wrap;html=1;" parent="1" vertex="1">
          <mxGeometry x="580" y="540" width="120" height="60" as="geometry" />
        </mxCell>
        <mxCell id="48XteLVSWuOSw09eDU2G-34" value="" style="endArrow=classic;html=1;rounded=0;" parent="1" edge="1">
          <mxGeometry width="50" height="50" relative="1" as="geometry">
            <mxPoint x="640" y="600" as="sourcePoint" />
            <mxPoint x="640" y="650" as="targetPoint" />
          </mxGeometry>
        </mxCell>
        <mxCell id="48XteLVSWuOSw09eDU2G-37" value="" style="edgeStyle=orthogonalEdgeStyle;rounded=0;orthogonalLoop=1;jettySize=auto;html=1;" parent="1" source="48XteLVSWuOSw09eDU2G-35" target="48XteLVSWuOSw09eDU2G-36" edge="1">
          <mxGeometry relative="1" as="geometry" />
        </mxCell>
        <mxCell id="48XteLVSWuOSw09eDU2G-35" value="Using Website Service&amp;nbsp;" style="rounded=1;whiteSpace=wrap;html=1;" parent="1" vertex="1">
          <mxGeometry x="580" y="650" width="120" height="60" as="geometry" />
        </mxCell>
        <mxCell id="48XteLVSWuOSw09eDU2G-36" value="Logout" style="rounded=1;whiteSpace=wrap;html=1;" parent="1" vertex="1">
          <mxGeometry x="580" y="760" width="120" height="60" as="geometry" />
        </mxCell>
        <mxCell id="48XteLVSWuOSw09eDU2G-38" value="" style="ellipse;html=1;shape=endState;fillColor=#000000;strokeColor=#000000;" parent="1" vertex="1">
          <mxGeometry x="625" y="880" width="30" height="30" as="geometry" />
        </mxCell>
        <mxCell id="48XteLVSWuOSw09eDU2G-40" value="" style="edgeStyle=orthogonalEdgeStyle;rounded=0;orthogonalLoop=1;jettySize=auto;html=1;" parent="1" edge="1">
          <mxGeometry relative="1" as="geometry">
            <mxPoint x="639.5" y="820" as="sourcePoint" />
            <mxPoint x="639.5" y="870" as="targetPoint" />
          </mxGeometry>
        </mxCell>
        <mxCell id="48XteLVSWuOSw09eDU2G-41" value="" style="endArrow=classic;html=1;rounded=0;" parent="1" edge="1">
          <mxGeometry width="50" height="50" relative="1" as="geometry">
            <mxPoint x="680" y="450" as="sourcePoint" />
            <mxPoint x="750" y="450" as="targetPoint" />
          </mxGeometry>
        </mxCell>
        <mxCell id="48XteLVSWuOSw09eDU2G-42" value="Forget&lt;br&gt;&amp;nbsp;Password" style="text;html=1;align=center;verticalAlign=middle;resizable=0;points=[];autosize=1;strokeColor=none;fillColor=none;" parent="1" vertex="1">
          <mxGeometry x="670" y="450" width="80" height="40" as="geometry" />
        </mxCell>
        <mxCell id="48XteLVSWuOSw09eDU2G-43" value="" style="rounded=1;whiteSpace=wrap;html=1;" parent="1" vertex="1">
          <mxGeometry x="750" y="240" width="270" height="470" as="geometry" />
        </mxCell>
        <mxCell id="48XteLVSWuOSw09eDU2G-44" value="Restore Password" style="rounded=0;whiteSpace=wrap;html=1;" parent="1" vertex="1">
          <mxGeometry x="775" y="240" width="120" height="30" as="geometry" />
        </mxCell>
        <mxCell id="48XteLVSWuOSw09eDU2G-71" value="" style="ellipse;fillColor=#000000;strokeColor=none;" parent="1" vertex="1">
          <mxGeometry x="830" y="300" width="30" height="30" as="geometry" />
        </mxCell>
        <mxCell id="48XteLVSWuOSw09eDU2G-72" value="" style="endArrow=classic;html=1;rounded=0;" parent="1" edge="1">
          <mxGeometry width="50" height="50" relative="1" as="geometry">
            <mxPoint x="845" y="330" as="sourcePoint" />
            <mxPoint x="845.5" y="360" as="targetPoint" />
          </mxGeometry>
        </mxCell>
        <mxCell id="48XteLVSWuOSw09eDU2G-73" value="Forgot Pass" style="rounded=1;whiteSpace=wrap;html=1;" parent="1" vertex="1">
          <mxGeometry x="785" y="360" width="120" height="60" as="geometry" />
        </mxCell>
        <mxCell id="48XteLVSWuOSw09eDU2G-74" value="" style="endArrow=classic;html=1;rounded=0;" parent="1" edge="1">
          <mxGeometry width="50" height="50" relative="1" as="geometry">
            <mxPoint x="844" y="420" as="sourcePoint" />
            <mxPoint x="845" y="460" as="targetPoint" />
          </mxGeometry>
        </mxCell>
        <mxCell id="48XteLVSWuOSw09eDU2G-75" value="Enter Information" style="rounded=1;whiteSpace=wrap;html=1;" parent="1" vertex="1">
          <mxGeometry x="785" y="460" width="120" height="60" as="geometry" />
        </mxCell>
        <mxCell id="48XteLVSWuOSw09eDU2G-76" value="Enter Information" style="rounded=1;whiteSpace=wrap;html=1;" parent="1" vertex="1">
          <mxGeometry x="785" y="600" width="120" height="60" as="geometry" />
        </mxCell>
        <mxCell id="48XteLVSWuOSw09eDU2G-77" value="" style="endArrow=classic;html=1;rounded=0;exitX=0.5;exitY=1;exitDx=0;exitDy=0;" parent="1" source="48XteLVSWuOSw09eDU2G-75" edge="1">
          <mxGeometry width="50" height="50" relative="1" as="geometry">
            <mxPoint x="844.5" y="540" as="sourcePoint" />
            <mxPoint x="845" y="600" as="targetPoint" />
          </mxGeometry>
        </mxCell>
        <mxCell id="48XteLVSWuOSw09eDU2G-78" value="" style="endArrow=classic;html=1;rounded=0;exitX=1;exitY=0.5;exitDx=0;exitDy=0;" parent="1" source="48XteLVSWuOSw09eDU2G-76" edge="1">
          <mxGeometry width="50" height="50" relative="1" as="geometry">
            <mxPoint x="915" y="580" as="sourcePoint" />
            <mxPoint x="905" y="490" as="targetPoint" />
            <Array as="points">
              <mxPoint x="995" y="630" />
              <mxPoint x="995" y="490" />
            </Array>
          </mxGeometry>
        </mxCell>
        <mxCell id="48XteLVSWuOSw09eDU2G-79" value="Invalid Info" style="text;html=1;align=center;verticalAlign=middle;resizable=0;points=[];autosize=1;strokeColor=none;fillColor=none;" parent="1" vertex="1">
          <mxGeometry x="915" y="530" width="80" height="30" as="geometry" />
        </mxCell>
        <mxCell id="48XteLVSWuOSw09eDU2G-80" value="" style="endArrow=classic;html=1;rounded=0;" parent="1" target="48XteLVSWuOSw09eDU2G-76" edge="1">
          <mxGeometry width="50" height="50" relative="1" as="geometry">
            <mxPoint x="785" y="490" as="sourcePoint" />
            <mxPoint x="795" y="570" as="targetPoint" />
            <Array as="points">
              <mxPoint x="770" y="490" />
              <mxPoint x="770" y="640" />
            </Array>
          </mxGeometry>
        </mxCell>
        <mxCell id="48XteLVSWuOSw09eDU2G-81" value="Provide &lt;br&gt;Info" style="text;html=1;align=center;verticalAlign=middle;resizable=0;points=[];autosize=1;strokeColor=none;fillColor=none;" parent="1" vertex="1">
          <mxGeometry x="770" y="540" width="60" height="40" as="geometry" />
        </mxCell>
        <mxCell id="48XteLVSWuOSw09eDU2G-82" value="" style="endArrow=classic;html=1;rounded=0;" parent="1" edge="1">
          <mxGeometry width="50" height="50" relative="1" as="geometry">
            <mxPoint x="844.5" y="660" as="sourcePoint" />
            <mxPoint x="845" y="770" as="targetPoint" />
          </mxGeometry>
        </mxCell>
        <mxCell id="48XteLVSWuOSw09eDU2G-86" style="edgeStyle=orthogonalEdgeStyle;rounded=0;orthogonalLoop=1;jettySize=auto;html=1;entryX=1;entryY=0.25;entryDx=0;entryDy=0;" parent="1" source="48XteLVSWuOSw09eDU2G-83" target="VBWwxBtcgoOA3XDyaHxQ-5" edge="1">
          <mxGeometry relative="1" as="geometry">
            <Array as="points">
              <mxPoint x="1070" y="800" />
              <mxPoint x="1070" y="215" />
            </Array>
          </mxGeometry>
        </mxCell>
        <mxCell id="48XteLVSWuOSw09eDU2G-83" value="Waiting" style="rounded=1;whiteSpace=wrap;html=1;" parent="1" vertex="1">
          <mxGeometry x="785" y="770" width="120" height="60" as="geometry" />
        </mxCell>
        <mxCell id="48XteLVSWuOSw09eDU2G-84" style="edgeStyle=orthogonalEdgeStyle;rounded=0;orthogonalLoop=1;jettySize=auto;html=1;exitX=0.5;exitY=1;exitDx=0;exitDy=0;" parent="1" source="48XteLVSWuOSw09eDU2G-43" target="48XteLVSWuOSw09eDU2G-43" edge="1">
          <mxGeometry relative="1" as="geometry" />
        </mxCell>
      </root>
    </mxGraphModel>
  </diagram>
  <diagram id="oFnt7SbY2ncCs58gW3-r" name="Check_Out">
    <mxGraphModel dx="1276" dy="654" grid="1" gridSize="10" guides="1" tooltips="1" connect="1" arrows="1" fold="1" page="1" pageScale="1" pageWidth="1100" pageHeight="1700" math="0" shadow="0">
      <root>
        <mxCell id="0" />
        <mxCell id="1" parent="0" />
        <mxCell id="I2Ork-ttKdQAiEJSRZfM-3" style="edgeStyle=orthogonalEdgeStyle;rounded=0;orthogonalLoop=1;jettySize=auto;html=1;exitX=1;exitY=0.5;exitDx=0;exitDy=0;entryX=0;entryY=0.5;entryDx=0;entryDy=0;" parent="1" source="I2Ork-ttKdQAiEJSRZfM-1" target="I2Ork-ttKdQAiEJSRZfM-2" edge="1">
          <mxGeometry relative="1" as="geometry" />
        </mxCell>
        <mxCell id="I2Ork-ttKdQAiEJSRZfM-1" value="" style="ellipse;fillColor=#000000;strokeColor=none;" parent="1" vertex="1">
          <mxGeometry x="160" y="180" width="30" height="30" as="geometry" />
        </mxCell>
        <mxCell id="5NVQPODxCKGCaWxz0r_e-5" style="edgeStyle=orthogonalEdgeStyle;rounded=0;orthogonalLoop=1;jettySize=auto;html=1;exitX=1;exitY=0.5;exitDx=0;exitDy=0;entryX=0;entryY=0.5;entryDx=0;entryDy=0;" parent="1" source="I2Ork-ttKdQAiEJSRZfM-2" target="5NVQPODxCKGCaWxz0r_e-4" edge="1">
          <mxGeometry relative="1" as="geometry" />
        </mxCell>
        <mxCell id="I2Ork-ttKdQAiEJSRZfM-2" value="Check Out?" style="rhombus;whiteSpace=wrap;html=1;" parent="1" vertex="1">
          <mxGeometry x="320" y="155" width="80" height="80" as="geometry" />
        </mxCell>
        <mxCell id="I2Ork-ttKdQAiEJSRZfM-4" value="" style="endArrow=classic;html=1;rounded=0;" parent="1" target="I2Ork-ttKdQAiEJSRZfM-5" edge="1">
          <mxGeometry width="50" height="50" relative="1" as="geometry">
            <mxPoint x="360" y="235" as="sourcePoint" />
            <mxPoint x="360" y="310" as="targetPoint" />
          </mxGeometry>
        </mxCell>
        <mxCell id="5NVQPODxCKGCaWxz0r_e-2" style="edgeStyle=orthogonalEdgeStyle;rounded=0;orthogonalLoop=1;jettySize=auto;html=1;exitX=0.5;exitY=1;exitDx=0;exitDy=0;" parent="1" source="I2Ork-ttKdQAiEJSRZfM-5" target="5NVQPODxCKGCaWxz0r_e-1" edge="1">
          <mxGeometry relative="1" as="geometry" />
        </mxCell>
        <mxCell id="I2Ork-ttKdQAiEJSRZfM-5" value="Existing and Save Quotes" style="rounded=0;whiteSpace=wrap;html=1;" parent="1" vertex="1">
          <mxGeometry x="300" y="290" width="120" height="60" as="geometry" />
        </mxCell>
        <mxCell id="5NVQPODxCKGCaWxz0r_e-1" value="" style="ellipse;html=1;shape=endState;fillColor=#000000;strokeColor=#000000;" parent="1" vertex="1">
          <mxGeometry x="345" y="440" width="30" height="30" as="geometry" />
        </mxCell>
        <mxCell id="5NVQPODxCKGCaWxz0r_e-3" value="No" style="text;html=1;align=center;verticalAlign=middle;resizable=0;points=[];autosize=1;strokeColor=none;fillColor=none;" parent="1" vertex="1">
          <mxGeometry x="320" y="235" width="40" height="30" as="geometry" />
        </mxCell>
        <mxCell id="5NVQPODxCKGCaWxz0r_e-8" style="edgeStyle=orthogonalEdgeStyle;rounded=0;orthogonalLoop=1;jettySize=auto;html=1;exitX=0.5;exitY=1;exitDx=0;exitDy=0;entryX=0.5;entryY=0;entryDx=0;entryDy=0;" parent="1" source="5NVQPODxCKGCaWxz0r_e-4" target="5NVQPODxCKGCaWxz0r_e-7" edge="1">
          <mxGeometry relative="1" as="geometry" />
        </mxCell>
        <mxCell id="5NVQPODxCKGCaWxz0r_e-4" value="Check Out Option" style="rounded=0;whiteSpace=wrap;html=1;" parent="1" vertex="1">
          <mxGeometry x="620" y="165" width="120" height="60" as="geometry" />
        </mxCell>
        <mxCell id="5NVQPODxCKGCaWxz0r_e-6" value="Yes" style="text;html=1;align=center;verticalAlign=middle;resizable=0;points=[];autosize=1;strokeColor=none;fillColor=none;" parent="1" vertex="1">
          <mxGeometry x="470" y="165" width="40" height="30" as="geometry" />
        </mxCell>
        <mxCell id="5NVQPODxCKGCaWxz0r_e-9" style="edgeStyle=orthogonalEdgeStyle;rounded=0;orthogonalLoop=1;jettySize=auto;html=1;exitX=0;exitY=0.5;exitDx=0;exitDy=0;" parent="1" source="5NVQPODxCKGCaWxz0r_e-7" edge="1">
          <mxGeometry relative="1" as="geometry">
            <mxPoint x="540" y="200" as="targetPoint" />
          </mxGeometry>
        </mxCell>
        <mxCell id="5NVQPODxCKGCaWxz0r_e-12" style="edgeStyle=orthogonalEdgeStyle;rounded=0;orthogonalLoop=1;jettySize=auto;html=1;exitX=0.5;exitY=1;exitDx=0;exitDy=0;" parent="1" source="5NVQPODxCKGCaWxz0r_e-7" target="5NVQPODxCKGCaWxz0r_e-11" edge="1">
          <mxGeometry relative="1" as="geometry" />
        </mxCell>
        <mxCell id="5NVQPODxCKGCaWxz0r_e-7" value="Succes" style="rhombus;whiteSpace=wrap;html=1;" parent="1" vertex="1">
          <mxGeometry x="640" y="290" width="80" height="80" as="geometry" />
        </mxCell>
        <mxCell id="5NVQPODxCKGCaWxz0r_e-10" value="No" style="text;html=1;align=center;verticalAlign=middle;resizable=0;points=[];autosize=1;strokeColor=none;fillColor=none;" parent="1" vertex="1">
          <mxGeometry x="580" y="300" width="40" height="30" as="geometry" />
        </mxCell>
        <mxCell id="5NVQPODxCKGCaWxz0r_e-13" style="edgeStyle=orthogonalEdgeStyle;rounded=0;orthogonalLoop=1;jettySize=auto;html=1;entryX=1;entryY=0.5;entryDx=0;entryDy=0;" parent="1" source="5NVQPODxCKGCaWxz0r_e-11" target="5NVQPODxCKGCaWxz0r_e-1" edge="1">
          <mxGeometry relative="1" as="geometry" />
        </mxCell>
        <mxCell id="5NVQPODxCKGCaWxz0r_e-11" value="Return Home Page" style="rounded=1;whiteSpace=wrap;html=1;" parent="1" vertex="1">
          <mxGeometry x="620" y="460" width="120" height="60" as="geometry" />
        </mxCell>
      </root>
    </mxGraphModel>
  </diagram>
  <diagram id="S0sjiEAD3CvSbl2jtD5F" name="Payment">
    <mxGraphModel dx="1276" dy="654" grid="1" gridSize="10" guides="1" tooltips="1" connect="1" arrows="1" fold="1" page="1" pageScale="1" pageWidth="1100" pageHeight="1700" math="0" shadow="0">
      <root>
        <mxCell id="0" />
        <mxCell id="1" parent="0" />
        <mxCell id="ptqJ4mtPNj5o8cI1Ki3J-3" style="edgeStyle=orthogonalEdgeStyle;rounded=0;orthogonalLoop=1;jettySize=auto;html=1;exitX=1;exitY=0.5;exitDx=0;exitDy=0;" parent="1" source="ptqJ4mtPNj5o8cI1Ki3J-1" target="ptqJ4mtPNj5o8cI1Ki3J-2" edge="1">
          <mxGeometry relative="1" as="geometry" />
        </mxCell>
        <mxCell id="ptqJ4mtPNj5o8cI1Ki3J-1" value="" style="ellipse;fillColor=#000000;strokeColor=none;" parent="1" vertex="1">
          <mxGeometry x="90" y="370" width="30" height="30" as="geometry" />
        </mxCell>
        <mxCell id="ptqJ4mtPNj5o8cI1Ki3J-5" style="edgeStyle=orthogonalEdgeStyle;rounded=0;orthogonalLoop=1;jettySize=auto;html=1;exitX=1;exitY=0.5;exitDx=0;exitDy=0;" parent="1" source="ptqJ4mtPNj5o8cI1Ki3J-2" target="ptqJ4mtPNj5o8cI1Ki3J-4" edge="1">
          <mxGeometry relative="1" as="geometry" />
        </mxCell>
        <mxCell id="ptqJ4mtPNj5o8cI1Ki3J-2" value="Payment Request" style="rounded=1;whiteSpace=wrap;html=1;" parent="1" vertex="1">
          <mxGeometry x="240" y="355" width="120" height="60" as="geometry" />
        </mxCell>
        <mxCell id="ptqJ4mtPNj5o8cI1Ki3J-6" style="edgeStyle=orthogonalEdgeStyle;rounded=0;orthogonalLoop=1;jettySize=auto;html=1;exitX=0.5;exitY=1;exitDx=0;exitDy=0;" parent="1" source="ptqJ4mtPNj5o8cI1Ki3J-4" target="ptqJ4mtPNj5o8cI1Ki3J-7" edge="1">
          <mxGeometry relative="1" as="geometry">
            <mxPoint x="520" y="480" as="targetPoint" />
          </mxGeometry>
        </mxCell>
        <mxCell id="ptqJ4mtPNj5o8cI1Ki3J-9" style="edgeStyle=orthogonalEdgeStyle;rounded=0;orthogonalLoop=1;jettySize=auto;html=1;exitX=0.5;exitY=0;exitDx=0;exitDy=0;" parent="1" source="ptqJ4mtPNj5o8cI1Ki3J-4" target="ptqJ4mtPNj5o8cI1Ki3J-8" edge="1">
          <mxGeometry relative="1" as="geometry" />
        </mxCell>
        <mxCell id="ptqJ4mtPNj5o8cI1Ki3J-4" value="Chose Method" style="rounded=1;whiteSpace=wrap;html=1;" parent="1" vertex="1">
          <mxGeometry x="460" y="355" width="120" height="60" as="geometry" />
        </mxCell>
        <mxCell id="ptqJ4mtPNj5o8cI1Ki3J-19" style="edgeStyle=orthogonalEdgeStyle;rounded=0;orthogonalLoop=1;jettySize=auto;html=1;exitX=1;exitY=0.5;exitDx=0;exitDy=0;entryX=0.5;entryY=1;entryDx=0;entryDy=0;" parent="1" source="ptqJ4mtPNj5o8cI1Ki3J-7" target="ptqJ4mtPNj5o8cI1Ki3J-17" edge="1">
          <mxGeometry relative="1" as="geometry" />
        </mxCell>
        <mxCell id="ptqJ4mtPNj5o8cI1Ki3J-7" value="Directly&amp;nbsp;" style="rounded=1;whiteSpace=wrap;html=1;" parent="1" vertex="1">
          <mxGeometry x="460" y="470" width="120" height="60" as="geometry" />
        </mxCell>
        <mxCell id="ptqJ4mtPNj5o8cI1Ki3J-14" style="edgeStyle=orthogonalEdgeStyle;rounded=0;orthogonalLoop=1;jettySize=auto;html=1;exitX=1;exitY=0.5;exitDx=0;exitDy=0;" parent="1" source="ptqJ4mtPNj5o8cI1Ki3J-8" target="ptqJ4mtPNj5o8cI1Ki3J-13" edge="1">
          <mxGeometry relative="1" as="geometry" />
        </mxCell>
        <mxCell id="ptqJ4mtPNj5o8cI1Ki3J-8" value="Banking/ Mobile Wallet" style="rounded=1;whiteSpace=wrap;html=1;" parent="1" vertex="1">
          <mxGeometry x="460" y="220" width="120" height="60" as="geometry" />
        </mxCell>
        <mxCell id="ptqJ4mtPNj5o8cI1Ki3J-12" style="edgeStyle=orthogonalEdgeStyle;rounded=0;orthogonalLoop=1;jettySize=auto;html=1;exitX=0;exitY=0.5;exitDx=0;exitDy=0;entryX=1;entryY=0.5;entryDx=0;entryDy=0;" parent="1" target="ptqJ4mtPNj5o8cI1Ki3J-4" edge="1">
          <mxGeometry relative="1" as="geometry">
            <mxPoint x="640" y="385" as="sourcePoint" />
          </mxGeometry>
        </mxCell>
        <mxCell id="ptqJ4mtPNj5o8cI1Ki3J-15" style="edgeStyle=orthogonalEdgeStyle;rounded=0;orthogonalLoop=1;jettySize=auto;html=1;exitX=1;exitY=0.5;exitDx=0;exitDy=0;" parent="1" source="ptqJ4mtPNj5o8cI1Ki3J-13" edge="1">
          <mxGeometry relative="1" as="geometry">
            <mxPoint x="799.9999999999998" y="384.6923076923076" as="targetPoint" />
          </mxGeometry>
        </mxCell>
        <mxCell id="ptqJ4mtPNj5o8cI1Ki3J-13" value="Failed?" style="rhombus;whiteSpace=wrap;html=1;" parent="1" vertex="1">
          <mxGeometry x="640" y="345" width="80" height="80" as="geometry" />
        </mxCell>
        <mxCell id="ptqJ4mtPNj5o8cI1Ki3J-16" value="Yes" style="text;html=1;align=center;verticalAlign=middle;resizable=0;points=[];autosize=1;strokeColor=none;fillColor=none;" parent="1" vertex="1">
          <mxGeometry x="600" y="355" width="40" height="30" as="geometry" />
        </mxCell>
        <mxCell id="UfgMN2htV7R3TmqFNwl2-2" style="edgeStyle=orthogonalEdgeStyle;rounded=0;orthogonalLoop=1;jettySize=auto;html=1;exitX=1;exitY=0.5;exitDx=0;exitDy=0;" parent="1" source="ptqJ4mtPNj5o8cI1Ki3J-17" target="UfgMN2htV7R3TmqFNwl2-1" edge="1">
          <mxGeometry relative="1" as="geometry" />
        </mxCell>
        <mxCell id="ptqJ4mtPNj5o8cI1Ki3J-17" value="Bill / Online Bill" style="rounded=1;whiteSpace=wrap;html=1;" parent="1" vertex="1">
          <mxGeometry x="800" y="355" width="120" height="60" as="geometry" />
        </mxCell>
        <mxCell id="UfgMN2htV7R3TmqFNwl2-1" value="" style="ellipse;html=1;shape=endState;fillColor=#000000;strokeColor=#000000;" parent="1" vertex="1">
          <mxGeometry x="980" y="370" width="30" height="30" as="geometry" />
        </mxCell>
      </root>
    </mxGraphModel>
  </diagram>
  <diagram id="LlkBvpcFMMs3C884KenK" name="AccountManager">
    <mxGraphModel dx="1276" dy="654" grid="1" gridSize="10" guides="1" tooltips="1" connect="1" arrows="1" fold="1" page="1" pageScale="1" pageWidth="1100" pageHeight="1700" math="0" shadow="0">
      <root>
        <mxCell id="0" />
        <mxCell id="1" parent="0" />
        <mxCell id="hrMEJRn5hxgPDN4rWEWM-1" style="edgeStyle=orthogonalEdgeStyle;rounded=0;orthogonalLoop=1;jettySize=auto;html=1;exitX=1;exitY=0.5;exitDx=0;exitDy=0;" edge="1" parent="1" source="hrMEJRn5hxgPDN4rWEWM-2" target="hrMEJRn5hxgPDN4rWEWM-4">
          <mxGeometry relative="1" as="geometry" />
        </mxCell>
        <mxCell id="hrMEJRn5hxgPDN4rWEWM-2" value="" style="ellipse;fillColor=#000000;strokeColor=none;" vertex="1" parent="1">
          <mxGeometry x="50" y="370" width="30" height="30" as="geometry" />
        </mxCell>
        <mxCell id="hrMEJRn5hxgPDN4rWEWM-3" style="edgeStyle=orthogonalEdgeStyle;rounded=0;orthogonalLoop=1;jettySize=auto;html=1;exitX=1;exitY=0.5;exitDx=0;exitDy=0;" edge="1" parent="1" source="hrMEJRn5hxgPDN4rWEWM-4" target="hrMEJRn5hxgPDN4rWEWM-7">
          <mxGeometry relative="1" as="geometry" />
        </mxCell>
        <mxCell id="hrMEJRn5hxgPDN4rWEWM-4" value="IDLE" style="rounded=1;whiteSpace=wrap;html=1;" vertex="1" parent="1">
          <mxGeometry x="160" y="355" width="120" height="60" as="geometry" />
        </mxCell>
        <mxCell id="hrMEJRn5hxgPDN4rWEWM-19" style="edgeStyle=orthogonalEdgeStyle;rounded=0;orthogonalLoop=1;jettySize=auto;html=1;exitX=1;exitY=0.5;exitDx=0;exitDy=0;entryX=0;entryY=0.5;entryDx=0;entryDy=0;" edge="1" parent="1" source="hrMEJRn5hxgPDN4rWEWM-7" target="hrMEJRn5hxgPDN4rWEWM-14">
          <mxGeometry relative="1" as="geometry" />
        </mxCell>
        <mxCell id="hrMEJRn5hxgPDN4rWEWM-7" value="Request Info" style="rounded=1;whiteSpace=wrap;html=1;" vertex="1" parent="1">
          <mxGeometry x="330" y="355" width="120" height="60" as="geometry" />
        </mxCell>
        <mxCell id="hrMEJRn5hxgPDN4rWEWM-13" style="edgeStyle=orthogonalEdgeStyle;rounded=0;orthogonalLoop=1;jettySize=auto;html=1;exitX=1;exitY=0.5;exitDx=0;exitDy=0;" edge="1" parent="1" source="hrMEJRn5hxgPDN4rWEWM-14">
          <mxGeometry relative="1" as="geometry">
            <mxPoint x="799.9999999999998" y="384.6923076923076" as="targetPoint" />
          </mxGeometry>
        </mxCell>
        <mxCell id="hrMEJRn5hxgPDN4rWEWM-23" style="edgeStyle=orthogonalEdgeStyle;rounded=0;orthogonalLoop=1;jettySize=auto;html=1;exitX=0.5;exitY=1;exitDx=0;exitDy=0;entryX=0.5;entryY=0;entryDx=0;entryDy=0;" edge="1" parent="1" source="hrMEJRn5hxgPDN4rWEWM-14" target="hrMEJRn5hxgPDN4rWEWM-22">
          <mxGeometry relative="1" as="geometry" />
        </mxCell>
        <mxCell id="hrMEJRn5hxgPDN4rWEWM-14" value="Exist?" style="rhombus;whiteSpace=wrap;html=1;" vertex="1" parent="1">
          <mxGeometry x="590" y="345" width="80" height="80" as="geometry" />
        </mxCell>
        <mxCell id="hrMEJRn5hxgPDN4rWEWM-15" value="Request Data" style="text;html=1;align=center;verticalAlign=middle;resizable=0;points=[];autosize=1;strokeColor=none;fillColor=none;" vertex="1" parent="1">
          <mxGeometry x="470" y="355" width="100" height="30" as="geometry" />
        </mxCell>
        <mxCell id="hrMEJRn5hxgPDN4rWEWM-21" style="edgeStyle=orthogonalEdgeStyle;rounded=0;orthogonalLoop=1;jettySize=auto;html=1;exitX=1;exitY=0.5;exitDx=0;exitDy=0;entryX=0.5;entryY=0;entryDx=0;entryDy=0;" edge="1" parent="1" source="hrMEJRn5hxgPDN4rWEWM-17" target="hrMEJRn5hxgPDN4rWEWM-7">
          <mxGeometry relative="1" as="geometry">
            <mxPoint x="550" y="250" as="targetPoint" />
            <Array as="points">
              <mxPoint x="940" y="385" />
              <mxPoint x="940" y="250" />
              <mxPoint x="390" y="250" />
            </Array>
          </mxGeometry>
        </mxCell>
        <mxCell id="hrMEJRn5hxgPDN4rWEWM-17" value="User name or emai have already&amp;nbsp;registered" style="rounded=1;whiteSpace=wrap;html=1;" vertex="1" parent="1">
          <mxGeometry x="800" y="355" width="120" height="60" as="geometry" />
        </mxCell>
        <mxCell id="hrMEJRn5hxgPDN4rWEWM-18" value="" style="ellipse;html=1;shape=endState;fillColor=#000000;strokeColor=#000000;" vertex="1" parent="1">
          <mxGeometry x="615" y="850" width="30" height="30" as="geometry" />
        </mxCell>
        <mxCell id="hrMEJRn5hxgPDN4rWEWM-20" value="Yes" style="text;html=1;align=center;verticalAlign=middle;resizable=0;points=[];autosize=1;strokeColor=none;fillColor=none;" vertex="1" parent="1">
          <mxGeometry x="710" y="355" width="40" height="30" as="geometry" />
        </mxCell>
        <mxCell id="hrMEJRn5hxgPDN4rWEWM-25" style="edgeStyle=orthogonalEdgeStyle;rounded=0;orthogonalLoop=1;jettySize=auto;html=1;exitX=0.5;exitY=1;exitDx=0;exitDy=0;entryX=0.5;entryY=0;entryDx=0;entryDy=0;" edge="1" parent="1" source="hrMEJRn5hxgPDN4rWEWM-22" target="hrMEJRn5hxgPDN4rWEWM-24">
          <mxGeometry relative="1" as="geometry" />
        </mxCell>
        <mxCell id="hrMEJRn5hxgPDN4rWEWM-22" value="Send Email Notification" style="rounded=1;whiteSpace=wrap;html=1;" vertex="1" parent="1">
          <mxGeometry x="570" y="470" width="120" height="60" as="geometry" />
        </mxCell>
        <mxCell id="hrMEJRn5hxgPDN4rWEWM-27" style="edgeStyle=orthogonalEdgeStyle;rounded=0;orthogonalLoop=1;jettySize=auto;html=1;exitX=0.5;exitY=1;exitDx=0;exitDy=0;" edge="1" parent="1" source="hrMEJRn5hxgPDN4rWEWM-24" target="hrMEJRn5hxgPDN4rWEWM-26">
          <mxGeometry relative="1" as="geometry" />
        </mxCell>
        <mxCell id="hrMEJRn5hxgPDN4rWEWM-24" value="Save new account to database" style="rounded=1;whiteSpace=wrap;html=1;" vertex="1" parent="1">
          <mxGeometry x="570" y="560" width="120" height="60" as="geometry" />
        </mxCell>
        <mxCell id="hrMEJRn5hxgPDN4rWEWM-29" style="edgeStyle=orthogonalEdgeStyle;rounded=0;orthogonalLoop=1;jettySize=auto;html=1;exitX=0.5;exitY=1;exitDx=0;exitDy=0;entryX=0.5;entryY=0;entryDx=0;entryDy=0;" edge="1" parent="1" source="hrMEJRn5hxgPDN4rWEWM-26" target="hrMEJRn5hxgPDN4rWEWM-28">
          <mxGeometry relative="1" as="geometry" />
        </mxCell>
        <mxCell id="hrMEJRn5hxgPDN4rWEWM-26" value="Success Notification" style="rounded=1;whiteSpace=wrap;html=1;" vertex="1" parent="1">
          <mxGeometry x="570" y="660" width="120" height="60" as="geometry" />
        </mxCell>
        <mxCell id="hrMEJRn5hxgPDN4rWEWM-30" style="edgeStyle=orthogonalEdgeStyle;rounded=0;orthogonalLoop=1;jettySize=auto;html=1;exitX=0.5;exitY=1;exitDx=0;exitDy=0;entryX=0.5;entryY=0;entryDx=0;entryDy=0;" edge="1" parent="1" source="hrMEJRn5hxgPDN4rWEWM-28" target="hrMEJRn5hxgPDN4rWEWM-18">
          <mxGeometry relative="1" as="geometry" />
        </mxCell>
        <mxCell id="hrMEJRn5hxgPDN4rWEWM-28" value="IDLE" style="rounded=1;whiteSpace=wrap;html=1;" vertex="1" parent="1">
          <mxGeometry x="570" y="760" width="120" height="60" as="geometry" />
        </mxCell>
        <mxCell id="hrMEJRn5hxgPDN4rWEWM-31" value="No" style="text;html=1;align=center;verticalAlign=middle;resizable=0;points=[];autosize=1;strokeColor=none;fillColor=none;" vertex="1" parent="1">
          <mxGeometry x="630" y="420" width="40" height="30" as="geometry" />
        </mxCell>
      </root>
    </mxGraphModel>
  </diagram>
  <diagram id="KZpuv-snRuWUA8FlplKP" name="Regulation">
    <mxGraphModel dx="1276" dy="654" grid="1" gridSize="10" guides="1" tooltips="1" connect="1" arrows="1" fold="1" page="1" pageScale="1" pageWidth="1100" pageHeight="1700" math="0" shadow="0">
      <root>
        <mxCell id="0" />
        <mxCell id="1" parent="0" />
        <mxCell id="w12edidzgCOz_jRBedZd-1" style="edgeStyle=orthogonalEdgeStyle;rounded=0;orthogonalLoop=1;jettySize=auto;html=1;exitX=1;exitY=0.5;exitDx=0;exitDy=0;" edge="1" parent="1" source="w12edidzgCOz_jRBedZd-2" target="w12edidzgCOz_jRBedZd-4">
          <mxGeometry relative="1" as="geometry" />
        </mxCell>
        <mxCell id="w12edidzgCOz_jRBedZd-2" value="" style="ellipse;fillColor=#000000;strokeColor=none;" vertex="1" parent="1">
          <mxGeometry x="50" y="370" width="30" height="30" as="geometry" />
        </mxCell>
        <mxCell id="w12edidzgCOz_jRBedZd-3" style="edgeStyle=orthogonalEdgeStyle;rounded=0;orthogonalLoop=1;jettySize=auto;html=1;exitX=1;exitY=0.5;exitDx=0;exitDy=0;" edge="1" parent="1" source="w12edidzgCOz_jRBedZd-4" target="w12edidzgCOz_jRBedZd-6">
          <mxGeometry relative="1" as="geometry" />
        </mxCell>
        <mxCell id="w12edidzgCOz_jRBedZd-4" value="IDLE" style="rounded=1;whiteSpace=wrap;html=1;" vertex="1" parent="1">
          <mxGeometry x="130" y="355" width="120" height="60" as="geometry" />
        </mxCell>
        <mxCell id="w12edidzgCOz_jRBedZd-5" style="edgeStyle=orthogonalEdgeStyle;rounded=0;orthogonalLoop=1;jettySize=auto;html=1;exitX=1;exitY=0.5;exitDx=0;exitDy=0;entryX=0;entryY=0.5;entryDx=0;entryDy=0;" edge="1" parent="1" source="w12edidzgCOz_jRBedZd-6" target="w12edidzgCOz_jRBedZd-9">
          <mxGeometry relative="1" as="geometry" />
        </mxCell>
        <mxCell id="w12edidzgCOz_jRBedZd-6" value="View Regulations" style="rounded=1;whiteSpace=wrap;html=1;" vertex="1" parent="1">
          <mxGeometry x="380" y="355" width="120" height="60" as="geometry" />
        </mxCell>
        <mxCell id="w12edidzgCOz_jRBedZd-7" style="edgeStyle=orthogonalEdgeStyle;rounded=0;orthogonalLoop=1;jettySize=auto;html=1;exitX=1;exitY=0.5;exitDx=0;exitDy=0;entryX=0;entryY=0.5;entryDx=0;entryDy=0;" edge="1" parent="1" source="w12edidzgCOz_jRBedZd-9" target="w12edidzgCOz_jRBedZd-12">
          <mxGeometry relative="1" as="geometry">
            <mxPoint x="799.9999999999998" y="384.6923076923076" as="targetPoint" />
          </mxGeometry>
        </mxCell>
        <mxCell id="w12edidzgCOz_jRBedZd-8" style="edgeStyle=orthogonalEdgeStyle;rounded=0;orthogonalLoop=1;jettySize=auto;html=1;exitX=0.5;exitY=1;exitDx=0;exitDy=0;entryX=0.5;entryY=0;entryDx=0;entryDy=0;" edge="1" parent="1" source="w12edidzgCOz_jRBedZd-9" target="w12edidzgCOz_jRBedZd-16">
          <mxGeometry relative="1" as="geometry" />
        </mxCell>
        <mxCell id="w12edidzgCOz_jRBedZd-9" value="Chose Change or Add" style="rhombus;whiteSpace=wrap;html=1;" vertex="1" parent="1">
          <mxGeometry x="630" y="345" width="80" height="80" as="geometry" />
        </mxCell>
        <mxCell id="w12edidzgCOz_jRBedZd-27" style="edgeStyle=orthogonalEdgeStyle;rounded=0;orthogonalLoop=1;jettySize=auto;html=1;exitX=0.5;exitY=1;exitDx=0;exitDy=0;entryX=0.5;entryY=0;entryDx=0;entryDy=0;" edge="1" parent="1" source="w12edidzgCOz_jRBedZd-12" target="w12edidzgCOz_jRBedZd-26">
          <mxGeometry relative="1" as="geometry" />
        </mxCell>
        <mxCell id="w12edidzgCOz_jRBedZd-12" value="Resquest Infomation" style="rounded=1;whiteSpace=wrap;html=1;" vertex="1" parent="1">
          <mxGeometry x="850" y="355" width="120" height="60" as="geometry" />
        </mxCell>
        <mxCell id="w12edidzgCOz_jRBedZd-13" value="" style="ellipse;html=1;shape=endState;fillColor=#000000;strokeColor=#000000;" vertex="1" parent="1">
          <mxGeometry x="655" y="930" width="30" height="30" as="geometry" />
        </mxCell>
        <mxCell id="w12edidzgCOz_jRBedZd-14" value="Add" style="text;html=1;align=center;verticalAlign=middle;resizable=0;points=[];autosize=1;strokeColor=none;fillColor=none;" vertex="1" parent="1">
          <mxGeometry x="720" y="355" width="40" height="30" as="geometry" />
        </mxCell>
        <mxCell id="w12edidzgCOz_jRBedZd-15" style="edgeStyle=orthogonalEdgeStyle;rounded=0;orthogonalLoop=1;jettySize=auto;html=1;exitX=0.5;exitY=1;exitDx=0;exitDy=0;entryX=0.5;entryY=0;entryDx=0;entryDy=0;" edge="1" parent="1" source="w12edidzgCOz_jRBedZd-16" target="w12edidzgCOz_jRBedZd-18">
          <mxGeometry relative="1" as="geometry" />
        </mxCell>
        <mxCell id="w12edidzgCOz_jRBedZd-16" value="Request Infomation" style="rounded=1;whiteSpace=wrap;html=1;" vertex="1" parent="1">
          <mxGeometry x="610" y="470" width="120" height="60" as="geometry" />
        </mxCell>
        <mxCell id="w12edidzgCOz_jRBedZd-17" style="edgeStyle=orthogonalEdgeStyle;rounded=0;orthogonalLoop=1;jettySize=auto;html=1;exitX=0.5;exitY=1;exitDx=0;exitDy=0;" edge="1" parent="1" source="w12edidzgCOz_jRBedZd-18" target="w12edidzgCOz_jRBedZd-20">
          <mxGeometry relative="1" as="geometry" />
        </mxCell>
        <mxCell id="w12edidzgCOz_jRBedZd-18" value="Change old Regualtion" style="rounded=1;whiteSpace=wrap;html=1;" vertex="1" parent="1">
          <mxGeometry x="610" y="580" width="120" height="60" as="geometry" />
        </mxCell>
        <mxCell id="w12edidzgCOz_jRBedZd-19" style="edgeStyle=orthogonalEdgeStyle;rounded=0;orthogonalLoop=1;jettySize=auto;html=1;exitX=0.5;exitY=1;exitDx=0;exitDy=0;entryX=0.5;entryY=0;entryDx=0;entryDy=0;" edge="1" parent="1" source="w12edidzgCOz_jRBedZd-20" target="w12edidzgCOz_jRBedZd-22">
          <mxGeometry relative="1" as="geometry" />
        </mxCell>
        <mxCell id="w12edidzgCOz_jRBedZd-20" value="Notification Changed successfully" style="rounded=1;whiteSpace=wrap;html=1;" vertex="1" parent="1">
          <mxGeometry x="610" y="690" width="120" height="60" as="geometry" />
        </mxCell>
        <mxCell id="w12edidzgCOz_jRBedZd-21" style="edgeStyle=orthogonalEdgeStyle;rounded=0;orthogonalLoop=1;jettySize=auto;html=1;exitX=0.5;exitY=1;exitDx=0;exitDy=0;entryX=0.5;entryY=0;entryDx=0;entryDy=0;" edge="1" parent="1" source="w12edidzgCOz_jRBedZd-22" target="w12edidzgCOz_jRBedZd-13">
          <mxGeometry relative="1" as="geometry" />
        </mxCell>
        <mxCell id="w12edidzgCOz_jRBedZd-22" value="IDLE" style="rounded=1;whiteSpace=wrap;html=1;" vertex="1" parent="1">
          <mxGeometry x="610" y="790" width="120" height="60" as="geometry" />
        </mxCell>
        <mxCell id="w12edidzgCOz_jRBedZd-23" value="Change" style="text;html=1;align=center;verticalAlign=middle;resizable=0;points=[];autosize=1;strokeColor=none;fillColor=none;" vertex="1" parent="1">
          <mxGeometry x="670" y="425" width="70" height="30" as="geometry" />
        </mxCell>
        <mxCell id="w12edidzgCOz_jRBedZd-24" value="Request Old &lt;br&gt;Regulations" style="text;html=1;align=center;verticalAlign=middle;resizable=0;points=[];autosize=1;strokeColor=none;fillColor=none;" vertex="1" parent="1">
          <mxGeometry x="270" y="350" width="90" height="40" as="geometry" />
        </mxCell>
        <mxCell id="w12edidzgCOz_jRBedZd-25" value="Request Change&amp;nbsp;&lt;br&gt;or Add" style="text;html=1;align=center;verticalAlign=middle;resizable=0;points=[];autosize=1;strokeColor=none;fillColor=none;" vertex="1" parent="1">
          <mxGeometry x="510" y="350" width="120" height="40" as="geometry" />
        </mxCell>
        <mxCell id="w12edidzgCOz_jRBedZd-29" style="edgeStyle=orthogonalEdgeStyle;rounded=0;orthogonalLoop=1;jettySize=auto;html=1;exitX=0.5;exitY=1;exitDx=0;exitDy=0;entryX=0.5;entryY=0;entryDx=0;entryDy=0;" edge="1" parent="1" source="w12edidzgCOz_jRBedZd-26" target="w12edidzgCOz_jRBedZd-28">
          <mxGeometry relative="1" as="geometry" />
        </mxCell>
        <mxCell id="w12edidzgCOz_jRBedZd-26" value="Add new Regulation" style="rounded=1;whiteSpace=wrap;html=1;" vertex="1" parent="1">
          <mxGeometry x="850" y="470" width="120" height="60" as="geometry" />
        </mxCell>
        <mxCell id="w12edidzgCOz_jRBedZd-30" style="edgeStyle=orthogonalEdgeStyle;rounded=0;orthogonalLoop=1;jettySize=auto;html=1;exitX=0.5;exitY=1;exitDx=0;exitDy=0;entryX=1;entryY=0.5;entryDx=0;entryDy=0;" edge="1" parent="1" source="w12edidzgCOz_jRBedZd-28" target="w12edidzgCOz_jRBedZd-22">
          <mxGeometry relative="1" as="geometry" />
        </mxCell>
        <mxCell id="w12edidzgCOz_jRBedZd-28" value="Notification added successfully" style="rounded=1;whiteSpace=wrap;html=1;" vertex="1" parent="1">
          <mxGeometry x="850" y="580" width="120" height="60" as="geometry" />
        </mxCell>
      </root>
    </mxGraphModel>
  </diagram>
  <diagram id="sHuxeyht8s7lAZf1Be1j" name="Report">
    <mxGraphModel dx="1276" dy="654" grid="1" gridSize="10" guides="1" tooltips="1" connect="1" arrows="1" fold="1" page="1" pageScale="1" pageWidth="1100" pageHeight="1700" math="0" shadow="0">
      <root>
        <mxCell id="0" />
        <mxCell id="1" parent="0" />
        <mxCell id="C-KyJRwv32a_k0yxLp4R-1" style="edgeStyle=orthogonalEdgeStyle;rounded=0;orthogonalLoop=1;jettySize=auto;html=1;exitX=1;exitY=0.5;exitDx=0;exitDy=0;" edge="1" parent="1" source="C-KyJRwv32a_k0yxLp4R-2" target="C-KyJRwv32a_k0yxLp4R-4">
          <mxGeometry relative="1" as="geometry" />
        </mxCell>
        <mxCell id="C-KyJRwv32a_k0yxLp4R-2" value="" style="ellipse;fillColor=#000000;strokeColor=none;" vertex="1" parent="1">
          <mxGeometry x="40" y="370" width="30" height="30" as="geometry" />
        </mxCell>
        <mxCell id="C-KyJRwv32a_k0yxLp4R-3" style="edgeStyle=orthogonalEdgeStyle;rounded=0;orthogonalLoop=1;jettySize=auto;html=1;exitX=1;exitY=0.5;exitDx=0;exitDy=0;" edge="1" parent="1" source="C-KyJRwv32a_k0yxLp4R-4" target="C-KyJRwv32a_k0yxLp4R-7">
          <mxGeometry relative="1" as="geometry" />
        </mxCell>
        <mxCell id="C-KyJRwv32a_k0yxLp4R-4" value="IDLE" style="rounded=1;whiteSpace=wrap;html=1;" vertex="1" parent="1">
          <mxGeometry x="140" y="355" width="120" height="60" as="geometry" />
        </mxCell>
        <mxCell id="C-KyJRwv32a_k0yxLp4R-25" style="edgeStyle=orthogonalEdgeStyle;rounded=0;orthogonalLoop=1;jettySize=auto;html=1;exitX=1;exitY=0.5;exitDx=0;exitDy=0;" edge="1" parent="1" source="C-KyJRwv32a_k0yxLp4R-7" target="C-KyJRwv32a_k0yxLp4R-23">
          <mxGeometry relative="1" as="geometry" />
        </mxCell>
        <mxCell id="C-KyJRwv32a_k0yxLp4R-7" value="Create financial report function" style="rounded=1;whiteSpace=wrap;html=1;" vertex="1" parent="1">
          <mxGeometry x="460" y="355" width="120" height="60" as="geometry" />
        </mxCell>
        <mxCell id="C-KyJRwv32a_k0yxLp4R-30" style="edgeStyle=orthogonalEdgeStyle;rounded=0;orthogonalLoop=1;jettySize=auto;html=1;exitX=0.5;exitY=1;exitDx=0;exitDy=0;entryX=0.25;entryY=0;entryDx=0;entryDy=0;entryPerimeter=0;" edge="1" parent="1" source="C-KyJRwv32a_k0yxLp4R-9" target="C-KyJRwv32a_k0yxLp4R-29">
          <mxGeometry relative="1" as="geometry" />
        </mxCell>
        <mxCell id="C-KyJRwv32a_k0yxLp4R-9" value="Filter information about revenue by room type" style="rounded=1;whiteSpace=wrap;html=1;" vertex="1" parent="1">
          <mxGeometry x="560" y="520" width="120" height="60" as="geometry" />
        </mxCell>
        <mxCell id="C-KyJRwv32a_k0yxLp4R-18" value="" style="ellipse;html=1;shape=endState;fillColor=#000000;strokeColor=#000000;" vertex="1" parent="1">
          <mxGeometry x="330" y="685" width="30" height="30" as="geometry" />
        </mxCell>
        <mxCell id="C-KyJRwv32a_k0yxLp4R-19" value="Request Financial Report" style="text;html=1;align=center;verticalAlign=middle;resizable=0;points=[];autosize=1;strokeColor=none;fillColor=none;" vertex="1" parent="1">
          <mxGeometry x="270" y="355" width="160" height="30" as="geometry" />
        </mxCell>
        <mxCell id="C-KyJRwv32a_k0yxLp4R-27" style="edgeStyle=orthogonalEdgeStyle;rounded=0;orthogonalLoop=1;jettySize=auto;html=1;exitX=0.25;exitY=1;exitDx=0;exitDy=0;exitPerimeter=0;entryX=0.5;entryY=0;entryDx=0;entryDy=0;" edge="1" parent="1" source="C-KyJRwv32a_k0yxLp4R-23" target="C-KyJRwv32a_k0yxLp4R-9">
          <mxGeometry relative="1" as="geometry" />
        </mxCell>
        <mxCell id="C-KyJRwv32a_k0yxLp4R-28" style="edgeStyle=orthogonalEdgeStyle;rounded=0;orthogonalLoop=1;jettySize=auto;html=1;exitX=0.75;exitY=1;exitDx=0;exitDy=0;exitPerimeter=0;" edge="1" parent="1" source="C-KyJRwv32a_k0yxLp4R-23" target="C-KyJRwv32a_k0yxLp4R-26">
          <mxGeometry relative="1" as="geometry" />
        </mxCell>
        <mxCell id="C-KyJRwv32a_k0yxLp4R-23" value="" style="verticalLabelPosition=bottom;verticalAlign=top;html=1;shape=mxgraph.basic.patternFillRect;fillStyle=vert;step=5;fillStrokeWidth=0.2;fillStrokeColor=#dddddd;fillColor=#330000;strokeColor=#330000;" vertex="1" parent="1">
          <mxGeometry x="670" y="440" width="90" height="10" as="geometry" />
        </mxCell>
        <mxCell id="C-KyJRwv32a_k0yxLp4R-31" style="edgeStyle=orthogonalEdgeStyle;rounded=0;orthogonalLoop=1;jettySize=auto;html=1;exitX=0.5;exitY=1;exitDx=0;exitDy=0;entryX=0.75;entryY=0;entryDx=0;entryDy=0;entryPerimeter=0;" edge="1" parent="1" source="C-KyJRwv32a_k0yxLp4R-26" target="C-KyJRwv32a_k0yxLp4R-29">
          <mxGeometry relative="1" as="geometry" />
        </mxCell>
        <mxCell id="C-KyJRwv32a_k0yxLp4R-26" value="Filter information about revenue by business period" style="rounded=1;whiteSpace=wrap;html=1;" vertex="1" parent="1">
          <mxGeometry x="760" y="520" width="120" height="60" as="geometry" />
        </mxCell>
        <mxCell id="C-KyJRwv32a_k0yxLp4R-33" style="edgeStyle=orthogonalEdgeStyle;rounded=0;orthogonalLoop=1;jettySize=auto;html=1;exitX=0.5;exitY=1;exitDx=0;exitDy=0;exitPerimeter=0;entryX=1;entryY=0.5;entryDx=0;entryDy=0;" edge="1" parent="1" source="C-KyJRwv32a_k0yxLp4R-29" target="C-KyJRwv32a_k0yxLp4R-32">
          <mxGeometry relative="1" as="geometry" />
        </mxCell>
        <mxCell id="C-KyJRwv32a_k0yxLp4R-29" value="" style="verticalLabelPosition=bottom;verticalAlign=top;html=1;shape=mxgraph.basic.patternFillRect;fillStyle=vert;step=5;fillStrokeWidth=0.2;fillStrokeColor=#dddddd;fillColor=#330000;strokeColor=#330000;" vertex="1" parent="1">
          <mxGeometry x="670" y="640" width="90" height="10" as="geometry" />
        </mxCell>
        <mxCell id="C-KyJRwv32a_k0yxLp4R-34" style="edgeStyle=orthogonalEdgeStyle;rounded=0;orthogonalLoop=1;jettySize=auto;html=1;exitX=0;exitY=0.5;exitDx=0;exitDy=0;" edge="1" parent="1" source="C-KyJRwv32a_k0yxLp4R-32" target="C-KyJRwv32a_k0yxLp4R-18">
          <mxGeometry relative="1" as="geometry" />
        </mxCell>
        <mxCell id="C-KyJRwv32a_k0yxLp4R-32" value="Final financial report" style="rounded=1;whiteSpace=wrap;html=1;" vertex="1" parent="1">
          <mxGeometry x="460" y="670" width="120" height="60" as="geometry" />
        </mxCell>
      </root>
    </mxGraphModel>
  </diagram>
  <diagram id="KHx8izOf8Qv2FNeWv9PV" name="RoomManagment">
    <mxGraphModel dx="1963" dy="1006" grid="1" gridSize="10" guides="1" tooltips="1" connect="1" arrows="1" fold="1" page="1" pageScale="1" pageWidth="1100" pageHeight="1700" math="0" shadow="0">
      <root>
        <mxCell id="0" />
        <mxCell id="1" parent="0" />
        <mxCell id="N4y0r3RWcBshVaodYCkG-1" style="edgeStyle=orthogonalEdgeStyle;rounded=0;orthogonalLoop=1;jettySize=auto;html=1;exitX=1;exitY=0.5;exitDx=0;exitDy=0;" edge="1" parent="1" source="N4y0r3RWcBshVaodYCkG-2" target="N4y0r3RWcBshVaodYCkG-4">
          <mxGeometry relative="1" as="geometry" />
        </mxCell>
        <mxCell id="N4y0r3RWcBshVaodYCkG-2" value="" style="ellipse;fillColor=#000000;strokeColor=none;" vertex="1" parent="1">
          <mxGeometry x="40" y="370" width="30" height="30" as="geometry" />
        </mxCell>
        <mxCell id="N4y0r3RWcBshVaodYCkG-3" style="edgeStyle=orthogonalEdgeStyle;rounded=0;orthogonalLoop=1;jettySize=auto;html=1;exitX=1;exitY=0.5;exitDx=0;exitDy=0;" edge="1" parent="1" source="N4y0r3RWcBshVaodYCkG-4" target="N4y0r3RWcBshVaodYCkG-6">
          <mxGeometry relative="1" as="geometry" />
        </mxCell>
        <mxCell id="N4y0r3RWcBshVaodYCkG-4" value="IDLE" style="rounded=1;whiteSpace=wrap;html=1;" vertex="1" parent="1">
          <mxGeometry x="140" y="355" width="120" height="60" as="geometry" />
        </mxCell>
        <mxCell id="N4y0r3RWcBshVaodYCkG-5" style="edgeStyle=orthogonalEdgeStyle;rounded=0;orthogonalLoop=1;jettySize=auto;html=1;exitX=1;exitY=0.5;exitDx=0;exitDy=0;" edge="1" parent="1" source="N4y0r3RWcBshVaodYCkG-6">
          <mxGeometry relative="1" as="geometry">
            <mxPoint x="750" y="450" as="targetPoint" />
            <Array as="points">
              <mxPoint x="750" y="385" />
            </Array>
          </mxGeometry>
        </mxCell>
        <mxCell id="N4y0r3RWcBshVaodYCkG-6" value="View Room List Information" style="rounded=1;whiteSpace=wrap;html=1;" vertex="1" parent="1">
          <mxGeometry x="460" y="355" width="120" height="60" as="geometry" />
        </mxCell>
        <mxCell id="N4y0r3RWcBshVaodYCkG-9" value="" style="ellipse;html=1;shape=endState;fillColor=#000000;strokeColor=#000000;" vertex="1" parent="1">
          <mxGeometry x="590" y="815" width="30" height="30" as="geometry" />
        </mxCell>
        <mxCell id="N4y0r3RWcBshVaodYCkG-10" value="Request Room Infomation" style="text;html=1;align=center;verticalAlign=middle;resizable=0;points=[];autosize=1;strokeColor=none;fillColor=none;" vertex="1" parent="1">
          <mxGeometry x="270" y="355" width="160" height="30" as="geometry" />
        </mxCell>
        <mxCell id="N4y0r3RWcBshVaodYCkG-18" style="edgeStyle=orthogonalEdgeStyle;rounded=0;orthogonalLoop=1;jettySize=auto;html=1;exitX=0;exitY=0.5;exitDx=0;exitDy=0;" edge="1" parent="1" source="N4y0r3RWcBshVaodYCkG-19" target="N4y0r3RWcBshVaodYCkG-9">
          <mxGeometry relative="1" as="geometry" />
        </mxCell>
        <mxCell id="N4y0r3RWcBshVaodYCkG-19" value="Success Notification" style="rounded=1;whiteSpace=wrap;html=1;" vertex="1" parent="1">
          <mxGeometry x="690" y="800" width="120" height="60" as="geometry" />
        </mxCell>
        <mxCell id="3vPKf9pT4Ltlta2IdXyz-1" value="Request Chose Room&amp;nbsp;&lt;br&gt;Information" style="text;html=1;align=center;verticalAlign=middle;resizable=0;points=[];autosize=1;strokeColor=none;fillColor=none;" vertex="1" parent="1">
          <mxGeometry x="580" y="345" width="140" height="40" as="geometry" />
        </mxCell>
        <mxCell id="vcss2R1Jbn3Y_1UZJSMd-2" style="edgeStyle=orthogonalEdgeStyle;rounded=0;orthogonalLoop=1;jettySize=auto;html=1;entryX=0;entryY=0.5;entryDx=0;entryDy=0;" edge="1" parent="1" source="FkSGloLgMTB7Tk0gE702-1" target="vcss2R1Jbn3Y_1UZJSMd-1">
          <mxGeometry relative="1" as="geometry" />
        </mxCell>
        <mxCell id="soh4fOXr7rrMJO44VHe5-1" style="edgeStyle=orthogonalEdgeStyle;rounded=0;orthogonalLoop=1;jettySize=auto;html=1;exitX=0.5;exitY=1;exitDx=0;exitDy=0;entryX=0.5;entryY=0;entryDx=0;entryDy=0;" edge="1" parent="1" source="FkSGloLgMTB7Tk0gE702-1" target="VDrLt7whYcGEfBexYZKV-3">
          <mxGeometry relative="1" as="geometry" />
        </mxCell>
        <mxCell id="FkSGloLgMTB7Tk0gE702-1" value="Correct Room Infomation?" style="rhombus;whiteSpace=wrap;html=1;" vertex="1" parent="1">
          <mxGeometry x="690" y="450" width="120" height="100" as="geometry" />
        </mxCell>
        <mxCell id="VDrLt7whYcGEfBexYZKV-1" style="edgeStyle=orthogonalEdgeStyle;rounded=0;orthogonalLoop=1;jettySize=auto;html=1;exitX=0.5;exitY=0;exitDx=0;exitDy=0;entryX=0.5;entryY=0;entryDx=0;entryDy=0;" edge="1" parent="1" source="vcss2R1Jbn3Y_1UZJSMd-1" target="N4y0r3RWcBshVaodYCkG-6">
          <mxGeometry relative="1" as="geometry">
            <Array as="points">
              <mxPoint x="930" y="270" />
              <mxPoint x="520" y="270" />
            </Array>
          </mxGeometry>
        </mxCell>
        <mxCell id="vcss2R1Jbn3Y_1UZJSMd-1" value="Room Infomation not&amp;nbsp;&lt;br&gt;correctly" style="rounded=1;whiteSpace=wrap;html=1;" vertex="1" parent="1">
          <mxGeometry x="870" y="470" width="120" height="60" as="geometry" />
        </mxCell>
        <mxCell id="VDrLt7whYcGEfBexYZKV-2" value="No" style="text;html=1;align=center;verticalAlign=middle;resizable=0;points=[];autosize=1;strokeColor=none;fillColor=none;" vertex="1" parent="1">
          <mxGeometry x="820" y="475" width="40" height="30" as="geometry" />
        </mxCell>
        <mxCell id="soh4fOXr7rrMJO44VHe5-3" style="edgeStyle=orthogonalEdgeStyle;rounded=0;orthogonalLoop=1;jettySize=auto;html=1;exitX=0.5;exitY=1;exitDx=0;exitDy=0;entryX=0.5;entryY=0;entryDx=0;entryDy=0;" edge="1" parent="1" source="VDrLt7whYcGEfBexYZKV-3" target="soh4fOXr7rrMJO44VHe5-2">
          <mxGeometry relative="1" as="geometry" />
        </mxCell>
        <mxCell id="VDrLt7whYcGEfBexYZKV-3" value="Make a reservation at the request of the customer" style="rounded=1;whiteSpace=wrap;html=1;" vertex="1" parent="1">
          <mxGeometry x="690" y="590" width="120" height="60" as="geometry" />
        </mxCell>
        <mxCell id="soh4fOXr7rrMJO44VHe5-4" style="edgeStyle=orthogonalEdgeStyle;rounded=0;orthogonalLoop=1;jettySize=auto;html=1;exitX=0.5;exitY=1;exitDx=0;exitDy=0;" edge="1" parent="1" source="soh4fOXr7rrMJO44VHe5-2">
          <mxGeometry relative="1" as="geometry">
            <mxPoint x="750" y="800" as="targetPoint" />
          </mxGeometry>
        </mxCell>
        <mxCell id="soh4fOXr7rrMJO44VHe5-2" value="Change room status to busy" style="rounded=1;whiteSpace=wrap;html=1;" vertex="1" parent="1">
          <mxGeometry x="690" y="695" width="120" height="60" as="geometry" />
        </mxCell>
      </root>
    </mxGraphModel>
  </diagram>
</mxfile>
